<svg width="26" height="26" viewBox="0 0 26 26" fill="none" xmlns="http://www.w3.org/2000/svg">
<path d="M19.5501 22.0728L19.5502 22.0729L22.3661 19.2795C22.5639 19.0729 22.5613 18.7227 22.2282 18.5105L18.2605 16.1681H18.2412L18.1248 16.1005C17.9319 15.9885 17.57 16.0226 17.242 16.2585L16.061 17.4596L16.0531 17.4676L16.0449 17.4752C15.862 17.6453 15.6413 17.6926 15.4766 17.7001C15.3176 17.7073 15.1662 17.6804 15.0457 17.6481C14.1962 17.4653 13.4695 17.0023 12.8405 16.4905C12.4232 16.151 12.0154 15.7598 11.6412 15.4007C11.4609 15.2277 11.2883 15.0622 11.1262 14.9134C11.1262 14.9134 11.1262 14.9134 11.1262 14.9134L11.4642 14.545C10.3981 13.5669 9.19125 12.1456 8.79289 10.6035L19.5501 22.0728ZM19.5501 22.0728L19.5443 22.0788C19.2537 22.3769 18.8537 22.4981 18.404 22.5C16.1786 22.4308 14.0368 21.3344 12.2142 20.151L19.5501 22.0728Z" stroke="#BCBCBC"/>
</svg>
